<?xml version="1.0" encoding="iso-8859-1"?>
<!-- Generator: Adobe Illustrator 19.0.0, SVG Export Plug-In . SVG Version: 6.00 Build 0)  -->
<svg version="1.1" id="Capa_1" xmlns="http://www.w3.org/2000/svg" xmlns:xlink="http://www.w3.org/1999/xlink" x="0px" y="0px"
	 viewBox="0 0 512 512" style="enable-background:new 0 0 512 512;" xml:space="preserve">
<polygon style="fill:#E6F9FF;" points="451,482.085 290.667,482.085 290.667,392.085 220.667,392.085 220.667,482.085 61,482.085 
	61,316.085 15,316.085 15,286.085 256,50.751 497,286.085 497,316.085 451,316.085 "/>
<g>
	<polygon style="fill:#CCEFFF;" points="256,50.751 256,392.085 290.667,392.085 290.667,482.085 451,482.085 451,316.085 
		497,316.085 497,286.085 	"/>
	<polygon style="fill:#CCEFFF;" points="336,56.085 336,140.711 406,200.462 406,56.085 	"/>
</g>
<polygon style="fill:#FFAB15;" points="512,316.085 482,316.085 482,297.316 256,72.254 30,297.316 30,316.085 0,316.085 0,284.853 
	256,29.915 512,284.853 "/>
<polygon style="fill:#FF9400;" points="256,29.915 256,72.254 482,297.316 482,316.085 512,316.085 512,284.853 "/>
<g>
</g>
<g>
</g>
<g>
</g>
<g>
</g>
<g>
</g>
<g>
</g>
<g>
</g>
<g>
</g>
<g>
</g>
<g>
</g>
<g>
</g>
<g>
</g>
<g>
</g>
<g>
</g>
<g>
</g>
</svg>
